<?xml version="1.0" standalone="no"?>
<!DOCTYPE svg PUBLIC "-//W3C//DTD SVG 20010904//EN"
 "http://www.w3.org/TR/2001/REC-SVG-20010904/DTD/svg10.dtd">
<svg version="1.0" xmlns="http://www.w3.org/2000/svg"
 width="512.000000pt" height="512.000000pt" viewBox="0 0 512.000000 512.000000"
 preserveAspectRatio="xMidYMid meet">

<g transform="translate(0.000000,512.000000) scale(0.100000,-0.100000)"
fill="#000000" stroke="none">
<path d="M1344 4061 c-40 -25 -142 -139 -221 -248 -76 -106 -191 -333 -233
-460 -197 -597 -64 -1244 353 -1724 78 -89 122 -119 177 -119 62 0 126 52 140
115 13 58 -5 99 -81 182 -507 557 -513 1407 -13 1963 88 99 96 112 96 162 2
87 -57 148 -142 148 -26 0 -58 -8 -76 -19z"/>
<path d="M3623 4060 c-34 -20 -50 -44 -64 -93 -15 -53 6 -99 86 -188 507 -561
505 -1413 -5 -1972 -76 -84 -96 -130 -80 -186 14 -50 35 -76 73 -95 83 -39
141 -15 242 100 530 607 591 1477 151 2139 -85 127 -213 278 -256 300 -40 21
-108 19 -147 -5z"/>
<path d="M1902 3559 c-96 -20 -276 -285 -331 -488 -93 -338 -8 -701 224 -959
56 -62 90 -82 140 -82 82 0 145 60 145 138 0 57 -10 78 -73 150 -112 129 -166
268 -174 447 -5 102 -2 134 16 204 28 111 80 215 151 299 73 87 80 101 80 154
0 94 -82 158 -178 137z"/>
<path d="M3137 3556 c-68 -25 -97 -66 -97 -139 0 -47 5 -56 92 -165 54 -67
108 -170 133 -252 9 -31 19 -106 22 -170 5 -97 2 -129 -16 -200 -27 -108 -76
-210 -132 -278 -96 -117 -99 -122 -99 -175 0 -87 58 -147 145 -147 50 0 84 20
140 82 271 299 337 747 165 1115 -74 159 -199 313 -268 333 -44 12 -38 12 -85
-4z"/>
<path d="M2472 3076 c-121 -40 -202 -149 -202 -274 0 -88 25 -148 87 -210 l53
-53 0 -687 c0 -656 1 -689 20 -729 24 -54 70 -83 130 -83 60 0 106 29 130 83
19 40 20 73 20 729 l0 687 53 53 c68 68 92 131 85 227 -11 151 -120 258 -272
267 -36 2 -79 -2 -104 -10z"/>
</g>
</svg>
