<?xml version="1.0" standalone="no"?>
<!DOCTYPE svg PUBLIC "-//W3C//DTD SVG 20010904//EN"
 "http://www.w3.org/TR/2001/REC-SVG-20010904/DTD/svg10.dtd">
<svg version="1.0" xmlns="http://www.w3.org/2000/svg"
 width="1024.000000pt" height="1024.000000pt" viewBox="0 0 1024.000000 1024.000000"
 preserveAspectRatio="xMidYMid meet">

<g transform="translate(0.000000,1024.000000) scale(0.100000,-0.100000)"
fill="#ffffff" stroke="none">
<path d="M7435 8235 c-684 -109 -1468 -569 -2154 -1264 -307 -311 -593 -632
-577 -648 3 -4 81 70 173 163 950 962 1799 1519 2470 1619 378 56 725 -60 919
-307 387 -496 327 -1425 -162 -2482 -345 -746 -887 -1499 -1487 -2065 -144
-136 -477 -412 -626 -520 -376 -270 -781 -465 -1143 -548 -114 -26 -138 -28
-333 -28 -239 0 -284 9 -421 76 -279 137 -446 423 -543 929 -31 159 -44 323
-45 557 0 116 -2 210 -4 208 -9 -9 -53 -343 -63 -478 -29 -398 55 -766 232
-1023 154 -222 355 -349 649 -411 116 -24 385 -24 525 1 288 51 528 134 820
285 473 245 854 528 1324 986 120 116 440 477 582 655 69 87 168 219 179 239
10 20 19 21 175 21 125 0 165 3 165 13 0 6 -23 74 -50 149 -28 75 -50 145 -50
155 0 10 38 81 84 158 287 481 521 1021 631 1455 68 271 94 459 102 730 14
518 -90 848 -347 1100 -134 132 -303 221 -500 265 -105 23 -405 29 -525 10z"/>
<path d="M346 5803 c-3 -10 -39 -180 -81 -378 -42 -198 -116 -551 -165 -783
-50 -233 -90 -428 -90 -433 0 -5 93 -9 219 -9 l219 0 9 43 c5 23 47 223 93
445 46 221 87 402 91 402 4 0 64 -105 134 -232 70 -128 174 -316 231 -418 56
-102 108 -197 115 -212 l12 -28 196 0 196 0 114 543 c63 298 139 655 168 792
29 138 53 258 53 268 0 16 -17 17 -215 17 -214 0 -216 0 -224 -22 -4 -13 -48
-215 -97 -450 -49 -236 -91 -428 -95 -428 -3 0 -45 73 -94 163 -72 132 -318
581 -385 702 l-17 30 -191 3 c-175 2 -191 1 -196 -15z"/>
<path d="M2534 5753 c-21 -38 -90 -156 -154 -263 -64 -107 -208 -350 -319
-540 -112 -190 -216 -365 -231 -390 -23 -37 -193 -326 -207 -352 -2 -5 108 -8
245 -8 l250 0 92 170 91 170 267 -2 267 -3 3 -35 c1 -19 9 -78 17 -131 8 -53
15 -113 15 -133 l0 -36 918 0 919 0 41 198 c23 108 42 200 42 205 0 4 -156 7
-347 7 l-347 0 30 31 c27 29 363 343 663 620 69 63 132 122 138 131 11 13 93
378 93 414 0 12 -87 14 -624 14 -401 0 -627 -4 -631 -10 -3 -5 -25 -100 -49
-210 l-42 -200 319 -2 320 -3 -139 -130 c-77 -71 -223 -206 -325 -300 -101
-93 -226 -210 -277 -260 l-93 -90 -110 -3 c-60 -2 -109 0 -109 5 0 23 -200
1185 -205 1193 -4 6 -97 10 -245 10 l-238 0 -38 -67z m237 -611 c12 -116 19
-219 15 -227 -4 -12 -29 -15 -140 -15 -74 0 -137 3 -140 8 -2 4 46 102 107
217 121 228 127 238 133 233 2 -2 13 -99 25 -216z"/>
<path d="M5788 5808 c-9 -7 -52 -74 -96 -148 -43 -74 -154 -262 -246 -417
-251 -427 -492 -836 -557 -946 l-58 -97 252 2 252 3 38 70 c21 39 58 108 82
153 24 46 49 90 56 98 9 11 59 14 270 14 142 0 260 -4 263 -8 3 -5 12 -67 21
-138 8 -71 18 -144 21 -161 l6 -33 224 0 c207 0 224 1 224 18 0 9 -60 373
-133 807 l-133 790 -235 3 c-178 2 -239 -1 -251 -10z m196 -678 c12 -122 19
-223 16 -225 -3 -1 -67 -4 -142 -4 -100 -2 -138 1 -138 10 0 6 13 35 29 63 15
28 68 127 116 219 48 93 89 166 92 164 2 -3 14 -105 27 -227z"/>
<path d="M7037 5814 c-3 -5 -23 -94 -46 -199 -60 -282 -177 -833 -241 -1140
l-56 -270 219 -3 c121 -1 221 -1 222 0 2 2 25 113 52 248 l50 245 126 3 c118
2 127 1 127 -16 0 -17 55 -191 64 -199 10 -10 278 442 365 616 43 84 230 508
237 536 11 43 -118 132 -236 163 -42 11 -152 15 -466 19 -226 3 -414 1 -417
-3z m713 -410 c54 -22 83 -65 84 -123 1 -61 -28 -117 -77 -149 -40 -27 -44
-27 -234 -30 -110 -2 -193 1 -193 6 0 5 14 76 30 157 17 81 30 150 30 152 0 1
72 3 160 3 124 0 169 -4 200 -16z"/>
<path d="M8718 5815 c-6 -7 10 -50 155 -405 52 -129 107 -265 120 -302 l26
-67 -180 -218 c-217 -262 -489 -593 -502 -610 -7 -10 43 -13 245 -13 l255 0
199 251 c260 329 242 309 249 284 4 -11 48 -135 99 -275 l93 -255 232 -3 c127
-1 231 -1 231 1 0 2 -27 71 -61 153 -229 565 -269 665 -269 679 0 9 140 186
310 393 171 206 310 379 310 384 0 4 -112 8 -249 8 l-250 0 -34 -42 c-18 -24
-102 -132 -187 -241 -84 -109 -157 -196 -162 -195 -9 3 -32 64 -127 338 l-46
135 -226 3 c-124 1 -228 0 -231 -3z"/>
<path d="M12 3718 c3 -135 4 -143 23 -143 17 0 20 8 23 58 l3 57 47 0 c62 0
72 -8 80 -66 6 -41 11 -50 31 -52 23 -4 23 -3 17 55 -5 36 -14 63 -24 71 -16
12 -16 14 0 23 21 12 31 59 19 91 -13 34 -56 48 -148 48 l-74 0 3 -142z m159
92 c21 -12 25 -50 7 -68 -7 -7 -36 -12 -65 -12 l-53 0 0 45 0 45 46 0 c25 0
54 -5 65 -10z"/>
<path d="M300 3715 l0 -145 100 0 100 0 0 25 c0 25 -1 25 -80 25 l-80 0 0 40
0 40 75 0 c68 0 75 2 75 20 0 17 -8 19 -72 22 l-73 3 0 35 0 35 78 3 c69 3 77
5 77 22 0 19 -7 20 -100 20 l-100 0 0 -145z"/>
<path d="M576 3839 c-18 -14 -26 -30 -26 -52 0 -47 11 -57 86 -83 75 -25 95
-44 78 -71 -23 -37 -109 -28 -124 12 -6 15 -17 25 -30 25 -28 0 -26 -32 3 -66
20 -23 34 -28 85 -32 58 -4 63 -3 92 26 59 59 33 111 -70 142 -71 21 -84 33
-68 63 13 25 84 24 100 -3 7 -11 23 -20 35 -20 26 0 27 1 12 33 -23 50 -124
65 -173 26z"/>
<path d="M814 3847 c-2 -7 -3 -71 -2 -143 l3 -129 100 0 c93 0 100 1 100 20 0
18 -8 20 -77 23 l-78 3 0 39 0 39 72 3 c60 2 73 6 76 21 3 15 -6 17 -73 17
l-76 0 3 38 3 37 78 3 c69 3 77 5 77 22 0 19 -7 20 -100 20 -74 0 -102 -4
-106 -13z"/>
<path d="M1140 3838 c-45 -104 -97 -255 -90 -262 15 -15 39 2 54 39 15 36 15
36 72 33 56 -3 58 -4 69 -38 9 -27 18 -36 38 -38 15 -2 27 -2 27 0 0 2 -24 66
-54 143 -48 127 -56 140 -80 143 -19 3 -28 -3 -36 -20z m66 -122 c6 -25 4 -26
-35 -26 l-41 0 20 50 c11 28 20 54 21 58 1 10 27 -50 35 -82z"/>
<path d="M1345 3848 c-3 -8 -4 -72 -3 -144 3 -125 4 -129 26 -132 21 -3 22 0
22 57 l0 61 53 0 c61 0 77 -11 77 -55 0 -37 21 -70 41 -63 18 6 13 84 -8 116
-13 21 -13 26 1 41 23 26 20 84 -5 107 -28 25 -195 35 -204 12z m165 -48 c20
-20 18 -47 -4 -62 -6 -4 -35 -8 -63 -8 l-53 0 0 38 c0 21 3 42 7 45 15 16 93
7 113 -13z"/>
<path d="M1676 3839 c-37 -29 -56 -71 -56 -124 0 -89 51 -145 132 -145 43 0
54 4 84 34 40 40 46 76 11 76 -16 0 -26 -9 -34 -30 -20 -53 -100 -53 -128 0
-28 55 -11 148 30 164 36 13 74 6 93 -19 20 -25 62 -35 62 -14 0 66 -133 106
-194 58z"/>
<path d="M1930 3715 c0 -146 0 -146 23 -143 20 3 22 9 25 66 l3 62 64 0 65 0
0 -65 c0 -58 2 -65 20 -65 19 0 20 7 20 145 0 138 -1 145 -20 145 -18 0 -20
-7 -20 -55 l0 -55 -67 0 -68 0 0 52 c0 47 -2 53 -22 56 -23 3 -23 3 -23 -143z"/>
<path d="M2401 3838 c-5 -13 -29 -76 -54 -141 -36 -92 -43 -119 -32 -123 21
-8 35 4 51 43 15 34 15 34 71 31 55 -3 57 -4 68 -38 9 -27 18 -36 39 -38 33
-4 35 -11 -34 163 -43 107 -51 120 -74 123 -20 3 -28 -2 -35 -20z m69 -130 c0
-14 -8 -18 -39 -18 l-39 0 21 57 21 57 18 -40 c10 -21 18 -47 18 -56z"/>
<path d="M2604 3847 c-2 -7 -3 -71 -2 -143 3 -125 4 -129 26 -132 22 -3 22 -2
22 105 l0 108 54 -85 c79 -124 85 -132 109 -128 21 3 22 7 22 143 0 138 0 140
-22 143 -23 3 -23 1 -23 -98 0 -56 -4 -99 -9 -96 -5 3 -35 49 -66 101 -47 78
-62 95 -82 95 -13 0 -26 -6 -29 -13z"/>
<path d="M2902 3718 l3 -143 55 -3 c119 -6 180 43 180 145 0 106 -45 143 -170
143 l-71 0 3 -142z m170 72 c12 -15 18 -39 18 -76 0 -72 -21 -94 -90 -94 l-50
0 0 93 c0 52 3 97 8 101 15 16 96 -1 114 -24z"/>
<path d="M3760 3706 l0 -146 65 0 c110 0 157 32 170 115 10 60 -9 120 -47 146
-24 17 -49 24 -109 27 l-79 5 0 -147z m164 75 c23 -25 31 -82 17 -124 -13 -38
-47 -57 -102 -57 l-29 0 0 100 0 100 48 0 c35 0 54 -5 66 -19z"/>
<path d="M4057 3844 c-4 -4 -7 -70 -7 -146 l0 -139 102 3 c88 3 103 6 106 20
3 15 -7 18 -75 20 l-78 3 -3 43 -3 42 70 0 c64 0 71 2 71 20 0 18 -7 20 -70
20 l-70 0 0 35 0 34 78 3 c69 3 77 5 77 23 0 18 -8 20 -95 23 -53 1 -99 0
-103 -4z"/>
<path d="M4280 3843 c0 -5 21 -70 46 -145 42 -126 48 -138 69 -138 14 0 29 8
34 18 12 23 91 251 91 264 0 5 -10 8 -22 6 -20 -3 -28 -19 -58 -110 -31 -95
-50 -132 -50 -97 0 6 -14 56 -31 110 -28 89 -34 99 -55 99 -13 0 -24 -3 -24
-7z"/>
<path d="M4560 3705 l0 -145 100 0 c93 0 100 1 100 20 0 18 -7 20 -75 20 l-75
0 0 45 0 45 70 0 c63 0 70 2 70 20 0 18 -7 20 -70 20 l-70 0 0 35 0 35 75 0
c73 0 75 1 75 25 l0 25 -100 0 -100 0 0 -145z"/>
<path d="M4820 3706 l0 -146 95 0 c95 0 95 0 95 25 0 24 -2 25 -70 25 l-69 0
-3 118 c-3 113 -4 117 -25 120 -23 3 -23 3 -23 -142z"/>
<path d="M5104 3831 c-80 -49 -85 -189 -9 -249 38 -30 121 -31 159 -1 37 29
56 71 56 124 0 88 -51 145 -129 145 -27 0 -58 -8 -77 -19z m126 -41 c40 -40
39 -140 0 -172 -22 -18 -65 -23 -95 -12 -24 9 -45 58 -45 103 0 82 88 133 140
81z"/>
<path d="M5364 3837 c-2 -7 -3 -71 -2 -143 3 -125 4 -129 26 -132 21 -3 22 0
22 52 l0 56 53 0 c28 0 63 6 77 13 61 31 61 118 0 149 -43 22 -168 25 -176 5z
m161 -47 c8 -7 15 -21 15 -31 0 -32 -28 -49 -81 -49 l-49 0 0 43 c0 24 3 47 8
51 10 11 89 1 107 -14z"/>
<path d="M5630 3704 c0 -145 0 -145 23 -142 21 3 22 8 25 103 l3 100 38 -100
c29 -77 42 -101 58 -103 18 -3 26 12 59 105 l39 108 3 -107 c2 -100 4 -108 22
-108 19 0 20 8 20 146 l0 145 -32 -3 c-31 -3 -33 -6 -68 -105 -19 -56 -38
-104 -40 -107 -3 -3 -23 44 -44 105 l-38 109 -34 0 -34 0 0 -146z"/>
<path d="M5990 3705 l0 -146 102 3 c89 3 103 5 106 21 3 15 -6 17 -77 17 l-81
0 0 45 0 45 70 0 c63 0 70 2 70 20 0 18 -7 20 -70 20 l-70 0 0 35 0 35 75 0
c73 0 75 1 75 25 l0 25 -100 0 -100 0 0 -145z"/>
<path d="M6250 3704 c0 -145 0 -145 23 -142 21 3 22 9 27 100 l5 97 60 -97
c50 -80 65 -98 88 -100 l28 -3 -3 143 c-3 135 -4 143 -23 143 -18 0 -20 -8
-25 -100 l-5 -100 -63 103 c-52 84 -68 102 -88 102 l-24 0 0 -146z"/>
<path d="M6520 3825 c0 -23 4 -25 45 -25 l45 0 0 -120 0 -120 25 0 25 0 0 119
0 120 43 3 c34 2 42 7 42 23 0 19 -8 20 -112 23 l-113 3 0 -26z"/>
<path d="M7902 3830 c-79 -48 -83 -189 -7 -248 31 -25 101 -30 138 -11 52 27
79 99 37 99 -11 0 -23 -8 -27 -17 -11 -33 -36 -53 -64 -53 -41 0 -58 9 -74 41
-54 103 45 220 121 144 45 -45 85 -26 46 21 -38 48 -113 58 -170 24z"/>
<path d="M8150 3705 l0 -145 100 0 c93 0 100 1 100 20 0 18 -7 20 -73 20 -41
0 -76 2 -78 4 -3 3 -3 23 -1 45 l4 41 69 0 c62 0 69 2 69 20 0 18 -7 20 -70
20 l-70 0 0 35 0 35 75 0 c73 0 75 1 75 25 l0 25 -100 0 -100 0 0 -145z"/>
<path d="M8404 3837 c-2 -7 -3 -71 -2 -143 3 -125 4 -129 25 -132 22 -3 22 0
25 100 l3 103 65 -103 c51 -80 70 -102 87 -102 23 0 23 1 23 145 0 137 -1 145
-20 145 -18 0 -20 -8 -22 -102 l-3 -103 -67 103 c-49 74 -73 102 -88 102 -11
0 -23 -6 -26 -13z"/>
<path d="M8674 3835 c-10 -24 5 -35 46 -35 l39 0 3 -117 c3 -114 4 -118 26
-121 22 -3 22 -2 22 117 l0 121 45 0 c41 0 45 2 45 25 l0 25 -110 0 c-88 0
-112 -3 -116 -15z"/>
<path d="M8945 3837 c-3 -7 -4 -71 -3 -143 l3 -129 103 -3 c96 -3 102 -2 102
17 0 18 -8 20 -77 23 l-78 3 -3 43 -3 42 76 0 c67 0 76 2 73 18 -3 14 -16 18
-76 20 l-72 3 0 34 0 34 78 3 c69 3 77 5 77 23 0 18 -8 20 -98 23 -74 2 -99 0
-102 -11z"/>
<path d="M9207 3843 c-4 -3 -7 -69 -7 -145 l0 -138 25 0 c24 0 25 3 25 60 l0
60 48 0 c63 0 75 -10 81 -67 5 -41 9 -48 30 -51 23 -4 23 -2 19 54 -3 35 -11
61 -20 68 -14 10 -14 14 3 35 36 44 20 102 -32 120 -35 12 -161 15 -172 4z
m147 -43 c18 -6 26 -17 26 -33 0 -35 -19 -47 -77 -47 l-53 0 0 45 0 45 39 0
c22 0 51 -4 65 -10z"/>
</g>
</svg>
